<svg version="1.1" id="Layer_1" xmlns="http://www.w3.org/2000/svg" xmlns:xlink="http://www.w3.org/1999/xlink" x="0px" y="0px"
	 width="200px" height="150px" viewBox="-15 0 90 46" enable-background="new 0 0 60 48" xml:space="preserve">
<g>
	<rect y="45" width="60" height="3"/>
</g>
<g>
	<path d="M49.995,43c-3.332,0-4.963-2.608-6.273-4.705C42.444,36.252,41.58,35,39.991,35c-1.588,0-2.45,1.252-3.727,3.295
		C34.954,40.392,33.324,43,29.993,43c-3.332,0-4.962-2.608-6.272-4.705C22.444,36.252,21.581,35,19.992,35
		c-1.587,0-2.451,1.252-3.727,3.295C14.956,40.392,13.325,43,9.995,43s-4.96-2.609-6.27-4.705C2.449,36.252,1.586,35,0,35v-3
		c3.33,0,4.96,2.609,6.269,4.705C7.545,38.748,8.408,40,9.995,40c1.587,0,2.45-1.252,3.727-3.295c1.31-2.096,2.94-4.705,6.271-4.705
		c3.332,0,4.962,2.608,6.272,4.705C27.542,38.748,28.405,40,29.993,40c1.588,0,2.45-1.252,3.727-3.295
		C35.03,34.608,36.66,32,39.991,32c3.332,0,4.963,2.608,6.273,4.705C47.542,38.748,48.406,40,49.995,40
		c1.59,0,2.453-1.252,3.731-3.296C55.037,34.608,56.668,32,60,32v3c-1.589,0-2.452,1.252-3.73,3.295
		C54.959,40.392,53.328,43,49.995,43z"/>
</g>
<g>
	<g>
		<line x1="30" y1="0" x2="30" y2="27"/>
	</g>
	<g>
		<g>
			<rect x="29" width="2" height="25"/>
		</g>
		<g>
			<g>
				<polygon points="21.82,18.204 23.285,16.84 29.998,24.063 36.713,16.84 38.178,18.204 29.998,27 				"/>
			</g>
		</g>
	</g>
</g>
<g>
	<g>
		<line x1="10" y1="0" x2="10" y2="27"/>
	</g>
	<g>
		<g>
			<rect x="9" width="2" height="25"/>
		</g>
		<g>
			<g>
				<polygon points="1.82,18.204 3.285,16.84 9.998,24.063 16.713,16.84 18.178,18.204 9.998,27 				"/>
			</g>
		</g>
	</g>
</g>
<g>
	<g>
		<line x1="50" y1="0" x2="50" y2="27"/>
	</g>
	<g>
		<g>
			<rect x="49" width="2" height="25"/>
		</g>
		<g>
			<g>
				<polygon points="41.82,18.204 43.285,16.84 49.998,24.063 56.713,16.84 58.178,18.204 49.998,27 				"/>
			</g>
		</g>
	</g>
</g>
</svg>